#!OML:ASF H:\Martial Arts Walks\Project 1\Capture day 1\Session 1\male.ASF
:FULLY-SPECIFIED
:DEGREES
2406
root -2.37911 14.5807 -39.4782 16.2972 -15.8921 -5.30632
lowerback 15.4463 4.35932 -5.85091
upperback -1.20813 4.45509 -2.21295
thorax -10.2891 2.35769 -0.188961
lowerneck -1.95105 -1.16293 -5.38808
upperneck -0.859071 -1.44478 8.40524
head 0.181976 -0.691653 3.66516
rclavicle 7.55382e-015 2.06736e-014
rhumerus -27.9331 14.1435 -78.1059
rradius 56.1418
rwrist 3.04627
rhand -8.12108 -50.9694
rfingers 7.12502
rthumb 17.7923 -80.1755
lclavicle 7.55382e-015 2.06736e-014
lhumerus -0.935309 -16.6527 78.4293
lradius 34.3115
lwrist -10.0925
lhand -23.0056 30.3097
lfingers 7.12502
lthumb 3.43772 60.2617
rfemur -12.1284 -3.04508 12.2067
rtibia 70.3123
rfoot -10.6225 -28.7599
rtoes 15.5972
lfemur -64.4645 18.1511 -14.6809
ltibia 76.1826
lfoot -17.3483 14.9841
ltoes -10.9243
2407
root -2.40748 14.5699 -39.6447 16.4597 -16.4433 -5.76418
lowerback 15.1653 4.48612 -5.30734
upperback -1.32665 4.75204 -2.14679
thorax -10.2314 2.47482 -0.477639
lowerneck -1.89396 -1.10772 -5.39394
upperneck -0.816379 -1.37471 8.31569
head 0.179324 -0.657471 3.63587
rclavicle -1.27222e-014 -4.77083e-015
rhumerus -28.1195 15.4686 -78.8042
rradius 57.4771
rwrist 3.39728
rhand -5.65611 -53.124
rfingers 7.12502
rthumb 20.1629 -82.0977
lclavicle -1.27222e-014 -4.77083e-015
lhumerus -1.53967 -16.7749 78.4331
lradius 35.0435
lwrist -9.95338
lhand -23.0901 29.4981
lfingers 7.12502
lthumb 3.3561 59.4515
rfemur -9.23403 -3.18288 11.2632
rtibia 65.4065
rfoot -7.84275 -27.3078
rtoes 10.7223
lfemur -64.9561 18.6859 -14.0301
ltibia 75.9873
lfoot -16.6264 14.6484
ltoes -10.6948
2408
root -2.43743 14.5544 -39.8182 16.5372 -17.0491 -6.29021
lowerback 15.0641 4.58905 -4.70906
upperback -1.43723 5.01483 -2.05519
thorax -10.2591 2.57279 -0.77278
lowerneck -1.86299 -1.06473 -5.33172
upperneck -0.755818 -1.3223 8.13853
head 0.186986 -0.631799 3.56231
rclavicle -1.31198e-014 2.22639e-014
rhumerus -28.3306 16.9547 -79.5587
rradius 58.8487
rwrist 3.74398
rhand -6.14135 -52.4109
rfingers 7.12502
rthumb 19.6965 -81.433
lclavicle -1.31198e-014 2.22639e-014
lhumerus -2.38476 -16.6403 78.3996
lradius 35.9722
lwrist -9.91765
lhand -22.2414 29.7606
lfingers 7.12502
lthumb 4.17563 59.6994
rfemur -6.3947 -3.21096 10.4963
rtibia 60.5405
rfoot -5.738 -25.3161
rtoes 6.22846
lfemur -65.2805 19.1602 -13.1982
ltibia 75.7783
lfoot -15.8419 14.4025
ltoes -10.4995
2409
root -2.47363 14.5518 -39.9926 16.5492 -17.9067 -6.66932
lowerback 14.9651 4.74186 -4.42508
upperback -1.50666 5.28351 -1.98236
thorax -10.2674 2.68887 -0.913033
lowerneck -1.94376 -0.972403 -5.31456
upperneck -0.646686 -1.2012 8.00896
head 0.225771 -0.568971 3.51459
rclavicle 2.74323e-014 -2.54444e-014
rhumerus -28.4184 18.4973 -80.3526
rradius 60.1958
rwrist 4.15097
rhand -8.21668 -50.4889
rfingers 7.12502
rthumb 17.7003 -79.7032
lclavicle 2.74323e-014 -2.54444e-014
lhumerus -3.36459 -16.2423 78.3126
lradius 37.0573
lwrist -9.87521
lhand -22.7733 28.381
lfingers 7.12502
lthumb 3.66205 58.3293
rfemur -3.86654 -3.08376 9.67055
rtibia 55.8349
rfoot -3.70809 -23.2258
rtoes 1.20501
lfemur -65.3162 19.6486 -12.4284
ltibia 75.4378
lfoot -15.1099 14.2711
ltoes -10.0828
2410
root -2.51122 14.5618 -40.1683 16.5904 -18.8068 -7.10087
lowerback 14.9051 4.86695 -4.14264
upperback -1.62078 5.51556 -1.87179
thorax -10.3488 2.78898 -1.00874
lowerneck -1.91278 -0.837695 -5.26204
upperneck -0.533626 -1.02796 7.83548
head 0.241835 -0.482515 3.44584
rclavicle -1.15295e-014 -2.06736e-014
rhumerus -28.5902 20.1203 -81.2223
rradius 61.4952
rwrist 4.80598
rhand -8.1505 -50.2336
rfingers 7.12502
rthumb 17.764 -79.4422
lclavicle -1.15295e-014 -2.06736e-014
lhumerus -4.59876 -15.6131 78.2331
lradius 38.2455
lwrist -9.76591
lhand -23.0997 27.3481
lfingers 7.12502
lthumb 3.34678 57.3016
rfemur -1.70186 -2.84677 9.05265
rtibia 51.4284
rfoot -2.03642 -22.7356
rtoes -6.10214
lfemur -65.1774 20.0174 -11.5053
ltibia 75.002
lfoot -14.3643 14.2731
ltoes -9.59416
2411
root -2.55636 14.5691 -40.3504 16.6482 -19.8834 -7.61701
lowerback 14.8153 5.01967 -3.98444
upperback -1.72155 5.76861 -1.71319
thorax -10.416 2.90736 -0.98576
lowerneck -1.87865 -0.690064 -5.18158
upperneck -0.375275 -0.840112 7.64328
head 0.270838 -0.388641 3.36552
rclavicle -2.38542e-015 6.36111e-015
rhumerus -28.7262 21.8801 -82.0847
rradius 62.7781
rwrist 5.43107
rhand -8.15113 -49.8521
rfingers 7.12502
rthumb 17.7634 -79.0607
lclavicle -2.38542e-015 6.36111e-015
lhumerus -5.93807 -14.8443 78.1026
lradius 39.4654
lwrist -9.41505
lhand -23.6018 26.727
lfingers 7.12502
lthumb 2.86188 56.6875
rfemur 0.155355 -2.46024 8.67085
rtibia 47.5104
rfoot -2.90173 -22.0078
rtoes -19.4536
lfemur -64.8985 20.4334 -10.3849
ltibia 74.5391
lfoot -13.6946 14.2857
ltoes -8.99055
2412
root -2.60683 14.5752 -40.534 16.7261 -21.0391 -8.3123
lowerback 14.7002 5.17836 -3.77075
upperback -1.76976 6.04578 -1.51996
thorax -10.4084 3.03523 -0.955441
lowerneck -1.85205 -0.501636 -5.06321
upperneck -0.25267 -0.596493 7.5391
head 0.286786 -0.266807 3.30909
rclavicle 6.40087e-014 -9.54166e-015
rhumerus -28.6557 23.6352 -82.9782
rradius 63.8198
rwrist 6.10666
rhand -8.09276 -49.2638
rfingers 7.12502
rthumb 17.8196 -78.4674
lclavicle 6.40087e-014 -9.54166e-015
lhumerus -7.30174 -14.0199 77.858
lradius 40.7316
lwrist -8.80365
lhand -24.0005 26.7158
lfingers 7.12502
lthumb 2.47686 56.6812
rfemur 1.72517 -2.05508 8.58988
rtibia 44.2171
rfoot -5.28874 -20.4061
rtoes -26.1261
lfemur -64.4503 20.8259 -8.95814
ltibia 74.1114
lfoot -13.2225 14.2733
ltoes -7.51771
2413
root -2.66063 14.5847 -40.7232 16.9071 -22.1272 -9.28638
lowerback 14.7283 5.31734 -3.3724
upperback -1.87517 6.33261 -1.23453
thorax -10.5369 3.1594 -0.947333
lowerneck -1.83825 -0.321634 -4.89193
upperneck -0.0246467 -0.369863 7.41554
head 0.339915 -0.15247 3.23597
rclavicle -5.52621e-014 1.59028e-014
rhumerus -28.6383 25.3236 -83.8812
rradius 64.7852
rwrist 7.03242
rhand -7.63658 -49.3049
rfingers 7.12502
rthumb 18.2585 -78.468
lclavicle -5.52621e-014 1.59028e-014
lhumerus -8.74886 -13.2 77.616
lradius 41.9235
lwrist -7.84575
lhand -24.6264 26.1133
lfingers 7.12502
lthumb 1.87235 56.0848
rfemur 2.90712 -1.84089 8.94011
rtibia 41.5789
rfoot -7.18539 -19.4323
rtoes -31.5692
lfemur -63.9451 21.0864 -7.1357
ltibia 73.739
lfoot -12.9842 14.2233
ltoes -5.95324
2414
root -2.71522 14.5928 -40.9107 17.2714 -23.1132 -10.4344
lowerback 14.6138 5.36652 -2.82764
upperback -1.95322 6.54094 -0.890626
thorax -10.5396 3.24145 -0.921212
lowerneck -1.96152 -0.100317 -4.76105
upperneck 0.277812 -0.0864805 7.34997
head 0.437952 -0.00633673 3.19214
rclavicle 6.99722e-014 -2.06736e-014
rhumerus -28.5773 27.0219 -84.7591
rradius 65.6935
rwrist 8.12712
rhand -7.29541 -48.3954
rfingers 7.12502
rthumb 18.5867 -77.5274
lclavicle 6.99722e-014 -2.06736e-014
lhumerus -10.1515 -12.2008 77.3081
lradius 43.0504
lwrist -6.55507
lhand -25.1579 26.8064
lfingers 7.12502
lthumb 1.35907 56.7818
rfemur 3.71997 -1.67964 9.63654
rtibia 39.4681
rfoot -6.89271 -19.3571
rtoes -31.8741
lfemur -63.5309 21.1923 -5.11601
ltibia 73.4746
lfoot -13.0275 14.1234
ltoes -3.87237
2415
root -2.76885 14.5962 -41.097 17.733 -23.8447 -11.8631
lowerback 14.5771 5.38193 -1.85752
upperback -2.03617 6.78234 -0.513167
thorax -10.5445 3.315 -1.10736
lowerneck -2.05443 0.0735098 -4.58649
upperneck 0.601392 0.129214 7.32884
head 0.542382 0.106059 3.15546
rclavicle -1.03368e-014 3.18055e-015
rhumerus -28.6817 28.4156 -85.5962
rradius 66.6267
rwrist 9.21759
rhand -6.63905 -48.4814
rfingers 7.12502
rthumb 19.2179 -77.5519
lclavicle -1.03368e-014 3.18055e-015
lhumerus -11.6455 -11.4526 77.0204
lradius 44.3242
lwrist -4.83277
lhand -25.57 27.5919
lfingers 7.12502
lthumb 0.961059 57.5695
rfemur 4.39453 -1.52622 10.8847
rtibia 37.6886
rfoot -7.89406 -20.232
rtoes -33.6582
lfemur -63.1757 21.1288 -2.79124
ltibia 73.322
lfoot -13.1283 13.73
ltoes -1.65962
2416
root -2.82484 14.5904 -41.2833 18.3747 -24.442 -13.2982
lowerback 14.1639 5.31119 -0.816137
upperback -2.0336 6.92439 -0.139245
thorax -10.2234 3.34433 -1.26789
lowerneck -2.05421 0.279566 -4.44069
upperneck 0.699287 0.396773 7.31051
head 0.555802 0.240858 3.12455
rclavicle -1.59028e-015 -1.59028e-014
rhumerus -28.6136 29.7409 -86.3654
rradius 67.4771
rwrist 10.3186
rhand -6.13735 -47.8736
rfingers 7.12502
rthumb 19.7003 -76.8953
lclavicle -1.59028e-015 -1.59028e-014
lhumerus -12.918 -10.5461 76.677
lradius 45.3959
lwrist -2.82844
lhand -25.0611 30.0965
lfingers 7.12502
lthumb 1.4526 60.0713
rfemur 4.87606 -1.41124 12.3266
rtibia 36.0314
rfoot -9.49599 -21.1951
rtoes -38.2157
lfemur -63.13 21.0321 -0.577733
ltibia 73.3145
lfoot -13.3889 13.3156
ltoes -2.03733
2417
root -2.87792 14.5715 -41.4668 18.9638 -24.6768 -14.5566
lowerback 14.1034 5.17121 0.226692
upperback -2.1751 6.96325 0.208035
thorax -10.2624 3.31533 -1.47965
lowerneck -2.29921 0.452905 -4.20117
upperneck 1.1005 0.610203 7.2213
head 0.712625 0.355776 3.05524
rclavicle 3.29983e-014 1.11319e-014
rhumerus -28.8514 30.7979 -87.1441
rradius 68.3246
rwrist 11.2873
rhand -5.70885 -47.0615
rfingers 7.12502
rthumb 20.1122 -76.0404
lclavicle 3.29983e-014 1.11319e-014
lhumerus -14.2348 -9.7806 76.4413
lradius 46.3856
lwrist -0.354259
lhand -28.2792 26.0131
lfingers 7.12502
lthumb -1.6556 55.9865
rfemur 5.30295 -1.63259 13.8084
rtibia 34.3742
rfoot -11.1813 -22.3425
rtoes -37.8315
lfemur -63.3454 20.6495 1.40631
ltibia 73.4781
lfoot -13.5683 12.4532
ltoes -2.46463
